<svg width="183" height="66" viewBox="0 0 183 66" fill="none" xmlns="http://www.w3.org/2000/svg">
<path d="M37.007 41.7493C37.007 51.1622 44.6623 58.8175 54.0752 58.8175H58.9183V49.0726H54.0752C50.1304 49.0726 46.9081 45.7918 46.9081 41.7493C46.9081 37.7069 50.1108 34.426 54.0752 34.426C58.0395 34.426 61.2227 37.7069 61.2227 41.7493V59.0128H71.1433V41.7493C71.1433 32.3364 63.4881 24.6812 54.0752 24.6812C44.6623 24.6812 37.007 32.3364 37.007 41.7493Z" fill="white"/>
<path d="M90.5352 24.6806C87.977 24.6806 85.5554 25.2469 83.3877 26.2624V24.0166H73.4671V59.0317H83.3877V41.7683C83.3877 37.7258 86.5904 34.445 90.5352 34.445C90.8477 34.445 91.5507 34.445 92.3124 34.445V24.6806C91.3359 24.6806 90.5548 24.6806 90.5352 24.6806Z" fill="white"/>
<path d="M34.7808 41.3389L35.0151 6.63623H24.8016V26.2431C22.5558 25.2081 20.0365 24.6027 17.4002 24.6027C7.81152 24.6027 0 32.2775 0 41.7099C0 51.1423 7.79199 58.8172 17.4002 58.8172C27.0083 58.8172 34.7808 51.1423 34.7808 41.7099C34.7808 41.5927 34.7808 41.456 34.7808 41.3389ZM17.4002 48.9356C13.3382 48.9356 10.0378 45.6938 10.0378 41.7099C10.0378 37.726 13.3382 34.4843 17.4002 34.4843C21.4621 34.4843 24.743 37.726 24.743 41.7099C24.743 45.6938 21.4426 48.9356 17.4002 48.9356Z" fill="white"/>
<path d="M113.072 49.4822C108.248 49.4822 104.342 45.635 104.342 40.8895V34.7966H110.553V24.8955H104.342V16.752H94.3047V40.8895C94.3047 51.064 102.722 59.3442 113.072 59.3442V49.4822Z" fill="white"/>
<path d="M117.329 55.8292H117.602C117.856 55.8292 117.973 55.7511 118.032 55.6925C118.149 55.5753 118.168 55.4386 118.168 55.341C118.168 55.1457 118.11 55.0285 118.032 54.9895C117.914 54.8723 117.719 54.8723 117.622 54.8723H117.309V55.8487L117.329 55.8292ZM117.719 54.2278C117.973 54.2278 118.364 54.2278 118.637 54.5403C118.793 54.6965 118.93 54.9504 118.93 55.3215C118.93 55.5363 118.891 55.7902 118.676 56.005C118.539 56.1612 118.325 56.2588 118.071 56.2979L119.223 57.7821H118.383L117.329 56.4346V57.7821H116.606V54.2474H117.719V54.2278ZM115.903 54.0911C115.512 54.4817 115.102 55.1262 115.102 56.0245C115.102 56.8447 115.454 57.5673 115.883 57.9969C116.313 58.4265 117.016 58.7585 117.719 58.7585C118.422 58.7585 119.047 58.4656 119.535 58.0164C119.848 57.7235 120.356 57.079 120.356 56.0831C120.356 55.0871 119.887 54.4426 119.535 54.0911C118.969 53.5248 118.325 53.3491 117.719 53.3491C117.055 53.3491 116.43 53.5639 115.903 54.1107M120.043 53.7006C120.746 54.4036 121 55.2238 121 56.0831C121 57.0595 120.649 57.8211 120.102 58.3679C119.633 58.8562 118.871 59.3639 117.7 59.3639C116.84 59.3639 115.981 59.071 115.337 58.407C114.692 57.7626 114.399 56.9033 114.399 56.0636C114.399 55.0285 114.809 54.2083 115.415 53.642C116.04 53.0366 116.86 52.7632 117.68 52.7632C118.325 52.7632 119.223 52.9389 120.004 53.7006" fill="white"/>
</svg>
