<svg width="30" height="11" viewBox="0 0 30 11" fill="none" xmlns="http://www.w3.org/2000/svg">
<path fill-rule="evenodd" clip-rule="evenodd" d="M6.66667 0.0300002C5.76667 0.0683335 5.12 0.153334 4.54833 0.346667C3.57064 0.674028 2.6822 1.2237 1.95286 1.95246C1.22351 2.68123 0.673136 3.56923 0.345 4.54667C2.48353e-08 5.58167 0 6.85833 0 9.415C0 9.57333 1.86265e-08 9.65333 0.0216667 9.71667C0.0421281 9.77798 0.0765725 9.83369 0.122276 9.87939C0.16798 9.92509 0.223689 9.95954 0.285 9.98C0.348333 10.0017 0.428333 10.0017 0.588333 10.0017H29.4117C29.5717 10.0017 29.6517 10.0017 29.715 9.98C29.7763 9.95954 29.832 9.92509 29.8777 9.87939C29.9234 9.83369 29.9579 9.77798 29.9783 9.71667C30 9.65167 30 9.57167 30 9.41167C30 6.85667 30 5.57833 29.655 4.54833C29.3273 3.57028 28.7771 2.68162 28.0478 1.95224C27.3184 1.22287 26.4297 0.672696 25.4517 0.345C24.88 0.153333 24.2317 0.0683335 23.3333 0.0300002V4.16667C23.3333 4.82971 23.0699 5.46559 22.6011 5.93443C22.1323 6.40328 21.4964 6.66667 20.8333 6.66667C20.1703 6.66667 19.5344 6.40328 19.0656 5.93443C18.5967 5.46559 18.3333 4.82971 18.3333 4.16667V0H11.6667V4.16667C11.6667 4.82971 11.4033 5.46559 10.9344 5.93443C10.4656 6.40328 9.82971 6.66667 9.16667 6.66667C8.50362 6.66667 7.86774 6.40328 7.3989 5.93443C6.93006 5.46559 6.66667 4.82971 6.66667 4.16667V0.0300002Z" fill="black"/>
</svg>
